<?xml version="1.0" encoding="utf-8" standalone="no"?>
<!DOCTYPE svg PUBLIC "-//W3C//DTD SVG 1.1//EN"
  "http://www.w3.org/Graphics/SVG/1.1/DTD/svg11.dtd">
<!-- Created with matplotlib (https://matplotlib.org/) -->
<svg height="432pt" version="1.1" viewBox="0 0 432 432" width="432pt" xmlns="http://www.w3.org/2000/svg" xmlns:xlink="http://www.w3.org/1999/xlink">
 <metadata>
  <rdf:RDF xmlns:cc="http://creativecommons.org/ns#" xmlns:dc="http://purl.org/dc/elements/1.1/" xmlns:rdf="http://www.w3.org/1999/02/22-rdf-syntax-ns#">
   <cc:Work>
    <dc:type rdf:resource="http://purl.org/dc/dcmitype/StillImage"/>
    <dc:date>2022-01-26T15:41:51.258632</dc:date>
    <dc:format>image/svg+xml</dc:format>
    <dc:creator>
     <cc:Agent>
      <dc:title>Matplotlib v3.3.2, https://matplotlib.org/</dc:title>
     </cc:Agent>
    </dc:creator>
   </cc:Work>
  </rdf:RDF>
 </metadata>
 <defs>
  <style type="text/css">*{stroke-linecap:butt;stroke-linejoin:round;}</style>
 </defs>
 <g id="figure_1">
  <g id="patch_1">
   <path d="M 0 432 
L 432 432 
L 432 0 
L 0 0 
z
" style="fill:#ffffff;"/>
  </g>
  <g id="axes_1">
   <g id="patch_2">
    <path d="M 54 378 
L 388.8 378 
L 388.8 51.84 
L 54 51.84 
z
" style="fill:#ffffff;"/>
   </g>
   <g id="matplotlib.axis_1">
    <g id="xtick_1">
     <g id="text_1">
      <!-- TTP -->
      <g style="fill:#262626;" transform="translate(127.312734 395.373594)scale(0.11 -0.11)">
       <defs>
        <path d="M 25.921875 0 
L 25.921875 63.140625 
L 2.34375 63.140625 
L 2.34375 71.578125 
L 59.078125 71.578125 
L 59.078125 63.140625 
L 35.40625 63.140625 
L 35.40625 0 
z
" id="ArialMT-84"/>
        <path d="M 7.71875 0 
L 7.71875 71.578125 
L 34.71875 71.578125 
Q 41.84375 71.578125 45.609375 70.90625 
Q 50.875 70.015625 54.4375 67.546875 
Q 58.015625 65.09375 60.1875 60.640625 
Q 62.359375 56.203125 62.359375 50.875 
Q 62.359375 41.75 56.546875 35.421875 
Q 50.734375 29.109375 35.546875 29.109375 
L 17.1875 29.109375 
L 17.1875 0 
z
M 17.1875 37.546875 
L 35.6875 37.546875 
Q 44.875 37.546875 48.734375 40.96875 
Q 52.59375 44.390625 52.59375 50.59375 
Q 52.59375 55.078125 50.3125 58.265625 
Q 48.046875 61.46875 44.34375 62.5 
Q 41.9375 63.140625 35.5 63.140625 
L 17.1875 63.140625 
z
" id="ArialMT-80"/>
       </defs>
       <use xlink:href="#ArialMT-84"/>
       <use x="61.083984" xlink:href="#ArialMT-84"/>
       <use x="122.167969" xlink:href="#ArialMT-80"/>
      </g>
     </g>
    </g>
    <g id="xtick_2">
     <g id="text_2">
      <!-- TFP -->
      <g style="fill:#262626;" transform="translate(294.712734 395.373594)scale(0.11 -0.11)">
       <defs>
        <path d="M 8.203125 0 
L 8.203125 71.578125 
L 56.5 71.578125 
L 56.5 63.140625 
L 17.671875 63.140625 
L 17.671875 40.96875 
L 51.265625 40.96875 
L 51.265625 32.515625 
L 17.671875 32.515625 
L 17.671875 0 
z
" id="ArialMT-70"/>
       </defs>
       <use xlink:href="#ArialMT-84"/>
       <use x="61.083984" xlink:href="#ArialMT-70"/>
       <use x="122.167969" xlink:href="#ArialMT-80"/>
      </g>
     </g>
    </g>
   </g>
   <g id="matplotlib.axis_2">
    <g id="ytick_1">
     <g id="line2d_1">
      <path clip-path="url(#p1676bbd099)" d="M 54 325.579132 
L 388.8 325.579132 
" style="fill:none;stroke:#cccccc;stroke-linecap:round;"/>
     </g>
     <g id="text_3">
      <!-- 0 -->
      <g style="fill:#262626;" transform="translate(38.382969 329.515929)scale(0.11 -0.11)">
       <defs>
        <path d="M 4.15625 35.296875 
Q 4.15625 48 6.765625 55.734375 
Q 9.375 63.484375 14.515625 67.671875 
Q 19.671875 71.875 27.484375 71.875 
Q 33.25 71.875 37.59375 69.546875 
Q 41.9375 67.234375 44.765625 62.859375 
Q 47.609375 58.5 49.21875 52.21875 
Q 50.828125 45.953125 50.828125 35.296875 
Q 50.828125 22.703125 48.234375 14.96875 
Q 45.65625 7.234375 40.5 3 
Q 35.359375 -1.21875 27.484375 -1.21875 
Q 17.140625 -1.21875 11.234375 6.203125 
Q 4.15625 15.140625 4.15625 35.296875 
z
M 13.1875 35.296875 
Q 13.1875 17.671875 17.3125 11.828125 
Q 21.4375 6 27.484375 6 
Q 33.546875 6 37.671875 11.859375 
Q 41.796875 17.71875 41.796875 35.296875 
Q 41.796875 52.984375 37.671875 58.78125 
Q 33.546875 64.59375 27.390625 64.59375 
Q 21.34375 64.59375 17.71875 59.46875 
Q 13.1875 52.9375 13.1875 35.296875 
z
" id="ArialMT-48"/>
       </defs>
       <use xlink:href="#ArialMT-48"/>
      </g>
     </g>
    </g>
    <g id="ytick_2">
     <g id="line2d_2">
      <path clip-path="url(#p1676bbd099)" d="M 54 264.101837 
L 388.8 264.101837 
" style="fill:none;stroke:#cccccc;stroke-linecap:round;"/>
     </g>
     <g id="text_4">
      <!-- 5 -->
      <g style="fill:#262626;" transform="translate(38.382969 268.038633)scale(0.11 -0.11)">
       <defs>
        <path d="M 4.15625 18.75 
L 13.375 19.53125 
Q 14.40625 12.796875 18.140625 9.390625 
Q 21.875 6 27.15625 6 
Q 33.5 6 37.890625 10.78125 
Q 42.28125 15.578125 42.28125 23.484375 
Q 42.28125 31 38.0625 35.34375 
Q 33.84375 39.703125 27 39.703125 
Q 22.75 39.703125 19.328125 37.765625 
Q 15.921875 35.84375 13.96875 32.765625 
L 5.71875 33.84375 
L 12.640625 70.609375 
L 48.25 70.609375 
L 48.25 62.203125 
L 19.671875 62.203125 
L 15.828125 42.96875 
Q 22.265625 47.46875 29.34375 47.46875 
Q 38.71875 47.46875 45.15625 40.96875 
Q 51.609375 34.46875 51.609375 24.265625 
Q 51.609375 14.546875 45.953125 7.46875 
Q 39.0625 -1.21875 27.15625 -1.21875 
Q 17.390625 -1.21875 11.203125 4.25 
Q 5.03125 9.71875 4.15625 18.75 
z
" id="ArialMT-53"/>
       </defs>
       <use xlink:href="#ArialMT-53"/>
      </g>
     </g>
    </g>
    <g id="ytick_3">
     <g id="line2d_3">
      <path clip-path="url(#p1676bbd099)" d="M 54 202.624541 
L 388.8 202.624541 
" style="fill:none;stroke:#cccccc;stroke-linecap:round;"/>
     </g>
     <g id="text_5">
      <!-- 10 -->
      <g style="fill:#262626;" transform="translate(32.265937 206.561338)scale(0.11 -0.11)">
       <defs>
        <path d="M 37.25 0 
L 28.46875 0 
L 28.46875 56 
Q 25.296875 52.984375 20.140625 49.953125 
Q 14.984375 46.921875 10.890625 45.40625 
L 10.890625 53.90625 
Q 18.265625 57.375 23.78125 62.296875 
Q 29.296875 67.234375 31.59375 71.875 
L 37.25 71.875 
z
" id="ArialMT-49"/>
       </defs>
       <use xlink:href="#ArialMT-49"/>
       <use x="55.615234" xlink:href="#ArialMT-48"/>
      </g>
     </g>
    </g>
    <g id="ytick_4">
     <g id="line2d_4">
      <path clip-path="url(#p1676bbd099)" d="M 54 141.147245 
L 388.8 141.147245 
" style="fill:none;stroke:#cccccc;stroke-linecap:round;"/>
     </g>
     <g id="text_6">
      <!-- 15 -->
      <g style="fill:#262626;" transform="translate(32.265937 145.084042)scale(0.11 -0.11)">
       <use xlink:href="#ArialMT-49"/>
       <use x="55.615234" xlink:href="#ArialMT-53"/>
      </g>
     </g>
    </g>
    <g id="ytick_5">
     <g id="line2d_5">
      <path clip-path="url(#p1676bbd099)" d="M 54 79.669949 
L 388.8 79.669949 
" style="fill:none;stroke:#cccccc;stroke-linecap:round;"/>
     </g>
     <g id="text_7">
      <!-- 20 -->
      <g style="fill:#262626;" transform="translate(32.265937 83.606746)scale(0.11 -0.11)">
       <defs>
        <path d="M 50.34375 8.453125 
L 50.34375 0 
L 3.03125 0 
Q 2.9375 3.171875 4.046875 6.109375 
Q 5.859375 10.9375 9.828125 15.625 
Q 13.8125 20.3125 21.34375 26.46875 
Q 33.015625 36.03125 37.109375 41.625 
Q 41.21875 47.21875 41.21875 52.203125 
Q 41.21875 57.421875 37.46875 61 
Q 33.734375 64.59375 27.734375 64.59375 
Q 21.390625 64.59375 17.578125 60.78125 
Q 13.765625 56.984375 13.71875 50.25 
L 4.6875 51.171875 
Q 5.609375 61.28125 11.65625 66.578125 
Q 17.71875 71.875 27.9375 71.875 
Q 38.234375 71.875 44.234375 66.15625 
Q 50.25 60.453125 50.25 52 
Q 50.25 47.703125 48.484375 43.546875 
Q 46.734375 39.40625 42.65625 34.8125 
Q 38.578125 30.21875 29.109375 22.21875 
Q 21.1875 15.578125 18.9375 13.203125 
Q 16.703125 10.84375 15.234375 8.453125 
z
" id="ArialMT-50"/>
       </defs>
       <use xlink:href="#ArialMT-50"/>
       <use x="55.615234" xlink:href="#ArialMT-48"/>
      </g>
     </g>
    </g>
   </g>
   <g id="PolyCollection_1">
    <defs>
     <path d="M 138.375145 -76.583114 
L 137.024855 -76.583114 
L 136.699218 -79.173042 
L 136.251735 -81.762969 
L 135.653169 -84.352897 
L 134.873788 -86.942825 
L 133.88592 -89.532753 
L 132.66699 -92.122681 
L 131.202647 -94.712608 
L 129.489431 -97.302536 
L 127.536357 -99.892464 
L 125.364817 -102.482392 
L 123.006438 -105.07232 
L 120.498911 -107.662248 
L 117.880303 -110.252175 
L 115.182881 -112.842103 
L 112.427801 -115.432031 
L 109.622096 -118.021959 
L 106.759066 -120.611887 
L 103.822493 -123.201814 
L 100.794206 -125.791742 
L 97.663592 -128.38167 
L 94.437002 -130.971598 
L 91.144786 -133.561526 
L 87.844045 -136.151454 
L 84.615998 -138.741381 
L 81.558032 -141.331309 
L 78.771613 -143.921237 
L 76.348206 -146.511165 
L 74.355771 -149.101093 
L 72.828387 -151.691021 
L 71.760968 -154.280948 
L 71.110129 -156.870876 
L 70.801161 -159.460804 
L 70.74 -162.050732 
L 70.828242 -164.64066 
L 70.978727 -167.230587 
L 71.129178 -169.820515 
L 71.251681 -172.410443 
L 71.356559 -175.000371 
L 71.490062 -177.590299 
L 71.72637 -180.180227 
L 72.155269 -182.770154 
L 72.867566 -185.360082 
L 73.940587 -187.95001 
L 75.426037 -190.539938 
L 77.342007 -193.129866 
L 79.670113 -195.719793 
L 82.357866 -198.309721 
L 85.325429 -200.899649 
L 88.475282 -203.489577 
L 91.703001 -206.079505 
L 94.907429 -208.669433 
L 97.998981 -211.25936 
L 100.905427 -213.849288 
L 103.575143 -216.439216 
L 105.978224 -219.029144 
L 108.106034 -221.619072 
L 109.96966 -224.209 
L 111.597463 -226.798927 
L 113.031676 -229.388855 
L 114.323922 -231.978783 
L 115.529649 -234.568711 
L 116.7018 -237.158639 
L 117.88444 -239.748566 
L 119.107324 -242.338494 
L 120.382438 -244.928422 
L 121.703279 -247.51835 
L 123.047114 -250.108278 
L 124.379849 -252.698206 
L 125.662556 -255.288133 
L 126.858388 -257.878061 
L 127.938558 -260.467989 
L 128.886336 -263.057917 
L 129.698511 -265.647845 
L 130.384315 -268.237772 
L 130.962322 -270.8277 
L 131.456195 -273.417628 
L 131.890245 -276.007556 
L 132.285706 -278.597484 
L 132.658334 -281.187412 
L 133.017569 -283.777339 
L 133.367159 -286.367267 
L 133.706793 -288.957195 
L 134.034181 -291.547123 
L 134.346977 -294.137051 
L 134.644106 -296.726979 
L 134.926254 -299.316906 
L 135.195584 -301.906834 
L 135.454896 -304.496762 
L 135.706599 -307.08669 
L 135.951836 -309.676618 
L 136.190017 -312.266545 
L 136.418854 -314.856473 
L 136.634836 -317.446401 
L 136.833977 -320.036329 
L 137.012627 -322.626257 
L 137.16813 -325.216185 
L 137.299233 -327.806112 
L 137.406181 -330.39604 
L 137.49055 -332.985968 
L 137.90945 -332.985968 
L 137.90945 -332.985968 
L 137.993819 -330.39604 
L 138.100767 -327.806112 
L 138.23187 -325.216185 
L 138.387373 -322.626257 
L 138.566023 -320.036329 
L 138.765164 -317.446401 
L 138.981146 -314.856473 
L 139.209983 -312.266545 
L 139.448164 -309.676618 
L 139.693401 -307.08669 
L 139.945104 -304.496762 
L 140.204416 -301.906834 
L 140.473746 -299.316906 
L 140.755894 -296.726979 
L 141.053023 -294.137051 
L 141.365819 -291.547123 
L 141.693207 -288.957195 
L 142.032841 -286.367267 
L 142.382431 -283.777339 
L 142.741666 -281.187412 
L 143.114294 -278.597484 
L 143.509755 -276.007556 
L 143.943805 -273.417628 
L 144.437678 -270.8277 
L 145.015685 -268.237772 
L 145.701489 -265.647845 
L 146.513664 -263.057917 
L 147.461442 -260.467989 
L 148.541612 -257.878061 
L 149.737444 -255.288133 
L 151.020151 -252.698206 
L 152.352886 -250.108278 
L 153.696721 -247.51835 
L 155.017562 -244.928422 
L 156.292676 -242.338494 
L 157.51556 -239.748566 
L 158.6982 -237.158639 
L 159.870351 -234.568711 
L 161.076078 -231.978783 
L 162.368324 -229.388855 
L 163.802537 -226.798927 
L 165.43034 -224.209 
L 167.293966 -221.619072 
L 169.421776 -219.029144 
L 171.824857 -216.439216 
L 174.494573 -213.849288 
L 177.401019 -211.25936 
L 180.492571 -208.669433 
L 183.696999 -206.079505 
L 186.924718 -203.489577 
L 190.074571 -200.899649 
L 193.042134 -198.309721 
L 195.729887 -195.719793 
L 198.057993 -193.129866 
L 199.973963 -190.539938 
L 201.459413 -187.95001 
L 202.532434 -185.360082 
L 203.244731 -182.770154 
L 203.67363 -180.180227 
L 203.909938 -177.590299 
L 204.043441 -175.000371 
L 204.148319 -172.410443 
L 204.270822 -169.820515 
L 204.421273 -167.230587 
L 204.571758 -164.64066 
L 204.66 -162.050732 
L 204.598839 -159.460804 
L 204.289871 -156.870876 
L 203.639032 -154.280948 
L 202.571613 -151.691021 
L 201.044229 -149.101093 
L 199.051794 -146.511165 
L 196.628387 -143.921237 
L 193.841968 -141.331309 
L 190.784002 -138.741381 
L 187.555955 -136.151454 
L 184.255214 -133.561526 
L 180.962998 -130.971598 
L 177.736408 -128.38167 
L 174.605794 -125.791742 
L 171.577507 -123.201814 
L 168.640934 -120.611887 
L 165.777904 -118.021959 
L 162.972199 -115.432031 
L 160.217119 -112.842103 
L 157.519697 -110.252175 
L 154.901089 -107.662248 
L 152.393562 -105.07232 
L 150.035183 -102.482392 
L 147.863643 -99.892464 
L 145.910569 -97.302536 
L 144.197353 -94.712608 
L 142.73301 -92.122681 
L 141.51408 -89.532753 
L 140.526212 -86.942825 
L 139.746831 -84.352897 
L 139.148265 -81.762969 
L 138.700782 -79.173042 
L 138.375145 -76.583114 
z
" id="m5311262a84" style="stroke:#4c4c4c;stroke-width:1.5;"/>
    </defs>
    <g clip-path="url(#p1676bbd099)">
     <use style="fill:#5875a4;stroke:#4c4c4c;stroke-width:1.5;" x="0" xlink:href="#m5311262a84" y="432"/>
    </g>
   </g>
   <g id="PolyCollection_2">
    <defs>
     <path d="M 306.632787 -68.825455 
L 303.567213 -68.825455 
L 302.936172 -71.820496 
L 302.109926 -74.815537 
L 301.054057 -77.810579 
L 299.737013 -80.80562 
L 298.133355 -83.800661 
L 296.227189 -86.795702 
L 294.015403 -89.790744 
L 291.510283 -92.785785 
L 288.741106 -95.780826 
L 285.754341 -98.775868 
L 282.612259 -101.770909 
L 279.389875 -104.76595 
L 276.170387 -107.760992 
L 273.03943 -110.756033 
L 270.078677 -113.751074 
L 267.359428 -116.746116 
L 264.936905 -119.741157 
L 262.845956 -122.736198 
L 261.09876 -125.73124 
L 259.684904 -128.726281 
L 258.57395 -131.721322 
L 257.720241 -134.716364 
L 257.069404 -137.711405 
L 256.565726 -140.706446 
L 256.159457 -143.701488 
L 255.81307 -146.696529 
L 255.505693 -149.69157 
L 255.235194 -152.686612 
L 255.017754 -155.681653 
L 254.885114 -158.676694 
L 254.88 -161.671736 
L 255.050402 -164.666777 
L 255.443485 -167.661818 
L 256.099861 -170.65686 
L 257.048838 -173.651901 
L 258.305064 -176.646942 
L 259.866788 -179.641983 
L 261.715756 -182.637025 
L 263.818579 -185.632066 
L 266.129286 -188.627107 
L 268.592684 -191.622149 
L 271.14813 -194.61719 
L 273.733347 -197.612231 
L 276.287963 -200.607273 
L 278.756565 -203.602314 
L 281.091128 -206.597355 
L 283.252765 -209.592397 
L 285.21281 -212.587438 
L 286.953267 -215.582479 
L 288.466701 -218.577521 
L 289.755632 -221.572562 
L 290.831513 -224.567603 
L 291.713372 -227.562645 
L 292.426188 -230.557686 
L 292.999095 -233.552727 
L 293.463474 -236.547769 
L 293.851024 -239.54281 
L 294.191901 -242.537851 
L 294.513027 -245.532893 
L 294.83668 -248.527934 
L 295.179495 -251.522975 
L 295.551962 -254.518017 
L 295.958495 -257.513058 
L 296.398037 -260.508099 
L 296.865132 -263.50314 
L 297.351273 -266.498182 
L 297.846353 -269.493223 
L 298.339988 -272.488264 
L 298.822575 -275.483306 
L 299.285979 -278.478347 
L 299.723867 -281.473388 
L 300.131739 -284.46843 
L 300.506767 -287.463471 
L 300.847556 -290.458512 
L 301.153919 -293.453554 
L 301.426709 -296.448595 
L 301.667728 -299.443636 
L 301.879679 -302.438678 
L 302.066133 -305.433719 
L 302.231454 -308.42876 
L 302.380651 -311.423802 
L 302.519144 -314.418843 
L 302.652423 -317.413884 
L 302.785648 -320.408926 
L 302.923213 -323.403967 
L 303.068338 -326.399008 
L 303.222754 -329.39405 
L 303.386538 -332.389091 
L 303.558134 -335.384132 
L 303.734572 -338.379174 
L 303.91185 -341.374215 
L 304.085439 -344.369256 
L 304.250819 -347.364298 
L 304.403973 -350.359339 
L 304.541772 -353.35438 
L 304.662205 -356.349421 
L 304.764441 -359.344463 
L 304.848748 -362.339504 
L 304.916289 -365.334545 
L 305.283711 -365.334545 
L 305.283711 -365.334545 
L 305.351252 -362.339504 
L 305.435559 -359.344463 
L 305.537795 -356.349421 
L 305.658228 -353.35438 
L 305.796027 -350.359339 
L 305.949181 -347.364298 
L 306.114561 -344.369256 
L 306.28815 -341.374215 
L 306.465428 -338.379174 
L 306.641866 -335.384132 
L 306.813462 -332.389091 
L 306.977246 -329.39405 
L 307.131662 -326.399008 
L 307.276787 -323.403967 
L 307.414352 -320.408926 
L 307.547577 -317.413884 
L 307.680856 -314.418843 
L 307.819349 -311.423802 
L 307.968546 -308.42876 
L 308.133867 -305.433719 
L 308.320321 -302.438678 
L 308.532272 -299.443636 
L 308.773291 -296.448595 
L 309.046081 -293.453554 
L 309.352444 -290.458512 
L 309.693233 -287.463471 
L 310.068261 -284.46843 
L 310.476133 -281.473388 
L 310.914021 -278.478347 
L 311.377425 -275.483306 
L 311.860012 -272.488264 
L 312.353647 -269.493223 
L 312.848727 -266.498182 
L 313.334868 -263.50314 
L 313.801963 -260.508099 
L 314.241505 -257.513058 
L 314.648038 -254.518017 
L 315.020505 -251.522975 
L 315.36332 -248.527934 
L 315.686973 -245.532893 
L 316.008099 -242.537851 
L 316.348976 -239.54281 
L 316.736526 -236.547769 
L 317.200905 -233.552727 
L 317.773812 -230.557686 
L 318.486628 -227.562645 
L 319.368487 -224.567603 
L 320.444368 -221.572562 
L 321.733299 -218.577521 
L 323.246733 -215.582479 
L 324.98719 -212.587438 
L 326.947235 -209.592397 
L 329.108872 -206.597355 
L 331.443435 -203.602314 
L 333.912037 -200.607273 
L 336.466653 -197.612231 
L 339.05187 -194.61719 
L 341.607316 -191.622149 
L 344.070714 -188.627107 
L 346.381421 -185.632066 
L 348.484244 -182.637025 
L 350.333212 -179.641983 
L 351.894936 -176.646942 
L 353.151162 -173.651901 
L 354.100139 -170.65686 
L 354.756515 -167.661818 
L 355.149598 -164.666777 
L 355.32 -161.671736 
L 355.314886 -158.676694 
L 355.182246 -155.681653 
L 354.964806 -152.686612 
L 354.694307 -149.69157 
L 354.38693 -146.696529 
L 354.040543 -143.701488 
L 353.634274 -140.706446 
L 353.130596 -137.711405 
L 352.479759 -134.716364 
L 351.62605 -131.721322 
L 350.515096 -128.726281 
L 349.10124 -125.73124 
L 347.354044 -122.736198 
L 345.263095 -119.741157 
L 342.840572 -116.746116 
L 340.121323 -113.751074 
L 337.16057 -110.756033 
L 334.029613 -107.760992 
L 330.810125 -104.76595 
L 327.587741 -101.770909 
L 324.445659 -98.775868 
L 321.458894 -95.780826 
L 318.689717 -92.785785 
L 316.184597 -89.790744 
L 313.972811 -86.795702 
L 312.066645 -83.800661 
L 310.462987 -80.80562 
L 309.145943 -77.810579 
L 308.090074 -74.815537 
L 307.263828 -71.820496 
L 306.632787 -68.825455 
z
" id="m57ae10390d" style="stroke:#4c4c4c;stroke-width:1.5;"/>
    </defs>
    <g clip-path="url(#p1676bbd099)">
     <use style="fill:#cc8963;stroke:#4c4c4c;stroke-width:1.5;" x="0" xlink:href="#m57ae10390d" y="432"/>
    </g>
   </g>
   <g id="line2d_6">
    <path clip-path="url(#p1676bbd099)" d="M 109.902875 313.283673 
L 165.497125 313.283673 
" style="fill:none;stroke:#4c4c4c;stroke-linecap:round;stroke-width:0.75;"/>
   </g>
   <g id="line2d_7">
    <path clip-path="url(#p1676bbd099)" d="M 77.945587 239.510918 
L 197.454413 239.510918 
" style="fill:none;stroke:#4c4c4c;stroke-linecap:round;stroke-width:0.75;"/>
   </g>
   <g id="line2d_8">
    <path clip-path="url(#p1676bbd099)" d="M 79.360897 288.692755 
L 196.039103 288.692755 
" style="fill:none;stroke:#4c4c4c;stroke-linecap:round;stroke-width:0.75;"/>
   </g>
   <g id="line2d_9">
    <path clip-path="url(#p1676bbd099)" d="M 109.902875 313.283673 
L 165.497125 313.283673 
" style="fill:none;stroke:#4c4c4c;stroke-linecap:round;stroke-width:0.75;"/>
   </g>
   <g id="line2d_10">
    <path clip-path="url(#p1676bbd099)" d="M 71.64594 264.101837 
L 203.75406 264.101837 
" style="fill:none;stroke:#4c4c4c;stroke-linecap:round;stroke-width:0.75;"/>
   </g>
   <g id="line2d_11">
    <path clip-path="url(#p1676bbd099)" d="M 94.869632 300.988214 
L 180.530368 300.988214 
" style="fill:none;stroke:#4c4c4c;stroke-linecap:round;stroke-width:0.75;"/>
   </g>
   <g id="line2d_12">
    <path clip-path="url(#p1676bbd099)" d="M 71.64594 264.101837 
L 203.75406 264.101837 
" style="fill:none;stroke:#4c4c4c;stroke-linecap:round;stroke-width:0.75;"/>
   </g>
   <g id="line2d_13">
    <path clip-path="url(#p1676bbd099)" d="M 71.776028 276.397296 
L 203.623972 276.397296 
" style="fill:none;stroke:#4c4c4c;stroke-linecap:round;stroke-width:0.75;"/>
   </g>
   <g id="line2d_14">
    <path clip-path="url(#p1676bbd099)" d="M 71.64594 264.101837 
L 203.75406 264.101837 
" style="fill:none;stroke:#4c4c4c;stroke-linecap:round;stroke-width:0.75;"/>
   </g>
   <g id="line2d_15">
    <path clip-path="url(#p1676bbd099)" d="M 129.778526 165.738163 
L 145.621474 165.738163 
" style="fill:none;stroke:#4c4c4c;stroke-linecap:round;stroke-width:0.75;"/>
   </g>
   <g id="line2d_16">
    <path clip-path="url(#p1676bbd099)" d="M 77.945587 239.510918 
L 197.454413 239.510918 
" style="fill:none;stroke:#4c4c4c;stroke-linecap:round;stroke-width:0.75;"/>
   </g>
   <g id="line2d_17">
    <path clip-path="url(#p1676bbd099)" d="M 92.162971 227.215459 
L 183.237029 227.215459 
" style="fill:none;stroke:#4c4c4c;stroke-linecap:round;stroke-width:0.75;"/>
   </g>
   <g id="line2d_18">
    <path clip-path="url(#p1676bbd099)" d="M 132.339849 153.442704 
L 143.060151 153.442704 
" style="fill:none;stroke:#4c4c4c;stroke-linecap:round;stroke-width:0.75;"/>
   </g>
   <g id="line2d_19">
    <path clip-path="url(#p1676bbd099)" d="M 79.360897 288.692755 
L 196.039103 288.692755 
" style="fill:none;stroke:#4c4c4c;stroke-linecap:round;stroke-width:0.75;"/>
   </g>
   <g id="line2d_20">
    <path clip-path="url(#p1676bbd099)" d="M 79.360897 288.692755 
L 196.039103 288.692755 
" style="fill:none;stroke:#4c4c4c;stroke-linecap:round;stroke-width:0.75;"/>
   </g>
   <g id="line2d_21">
    <path clip-path="url(#p1676bbd099)" d="M 71.64594 264.101837 
L 203.75406 264.101837 
" style="fill:none;stroke:#4c4c4c;stroke-linecap:round;stroke-width:0.75;"/>
   </g>
   <g id="line2d_22">
    <path clip-path="url(#p1676bbd099)" d="M 72.386106 251.806377 
L 203.013894 251.806377 
" style="fill:none;stroke:#4c4c4c;stroke-linecap:round;stroke-width:0.75;"/>
   </g>
   <g id="line2d_23">
    <path clip-path="url(#p1676bbd099)" d="M 77.945587 239.510918 
L 197.454413 239.510918 
" style="fill:none;stroke:#4c4c4c;stroke-linecap:round;stroke-width:0.75;"/>
   </g>
   <g id="line2d_24">
    <path clip-path="url(#p1676bbd099)" d="M 103.916392 214.92 
L 171.483608 214.92 
" style="fill:none;stroke:#4c4c4c;stroke-linecap:round;stroke-width:0.75;"/>
   </g>
   <g id="line2d_25">
    <path clip-path="url(#p1676bbd099)" d="M 77.945587 239.510918 
L 197.454413 239.510918 
" style="fill:none;stroke:#4c4c4c;stroke-linecap:round;stroke-width:0.75;"/>
   </g>
   <g id="line2d_26">
    <path clip-path="url(#p1676bbd099)" d="M 79.360897 288.692755 
L 196.039103 288.692755 
" style="fill:none;stroke:#4c4c4c;stroke-linecap:round;stroke-width:0.75;"/>
   </g>
   <g id="line2d_27">
    <path clip-path="url(#p1676bbd099)" d="M 120.670922 325.579132 
L 154.729078 325.579132 
" style="fill:none;stroke:#4c4c4c;stroke-linecap:round;stroke-width:0.75;"/>
   </g>
   <g id="line2d_28">
    <path clip-path="url(#p1676bbd099)" d="M 77.945587 239.510918 
L 197.454413 239.510918 
" style="fill:none;stroke:#4c4c4c;stroke-linecap:round;stroke-width:0.75;"/>
   </g>
   <g id="line2d_29">
    <path clip-path="url(#p1676bbd099)" d="M 79.360897 288.692755 
L 196.039103 288.692755 
" style="fill:none;stroke:#4c4c4c;stroke-linecap:round;stroke-width:0.75;"/>
   </g>
   <g id="line2d_30">
    <path clip-path="url(#p1676bbd099)" d="M 71.776028 276.397296 
L 203.623972 276.397296 
" style="fill:none;stroke:#4c4c4c;stroke-linecap:round;stroke-width:0.75;"/>
   </g>
   <g id="line2d_31">
    <path clip-path="url(#p1676bbd099)" d="M 72.386106 251.806377 
L 203.013894 251.806377 
" style="fill:none;stroke:#4c4c4c;stroke-linecap:round;stroke-width:0.75;"/>
   </g>
   <g id="line2d_32">
    <path clip-path="url(#p1676bbd099)" d="M 71.776028 276.397296 
L 203.623972 276.397296 
" style="fill:none;stroke:#4c4c4c;stroke-linecap:round;stroke-width:0.75;"/>
   </g>
   <g id="line2d_33">
    <path clip-path="url(#p1676bbd099)" d="M 77.945587 239.510918 
L 197.454413 239.510918 
" style="fill:none;stroke:#4c4c4c;stroke-linecap:round;stroke-width:0.75;"/>
   </g>
   <g id="line2d_34">
    <path clip-path="url(#p1676bbd099)" d="M 71.776028 276.397296 
L 203.623972 276.397296 
" style="fill:none;stroke:#4c4c4c;stroke-linecap:round;stroke-width:0.75;"/>
   </g>
   <g id="line2d_35">
    <path clip-path="url(#p1676bbd099)" d="M 119.29325 190.329082 
L 156.10675 190.329082 
" style="fill:none;stroke:#4c4c4c;stroke-linecap:round;stroke-width:0.75;"/>
   </g>
   <g id="line2d_36">
    <path clip-path="url(#p1676bbd099)" d="M 109.902875 313.283673 
L 165.497125 313.283673 
" style="fill:none;stroke:#4c4c4c;stroke-linecap:round;stroke-width:0.75;"/>
   </g>
   <g id="line2d_37">
    <path clip-path="url(#p1676bbd099)" d="M 77.945587 239.510918 
L 197.454413 239.510918 
" style="fill:none;stroke:#4c4c4c;stroke-linecap:round;stroke-width:0.75;"/>
   </g>
   <g id="line2d_38">
    <path clip-path="url(#p1676bbd099)" d="M 92.162971 227.215459 
L 183.237029 227.215459 
" style="fill:none;stroke:#4c4c4c;stroke-linecap:round;stroke-width:0.75;"/>
   </g>
   <g id="line2d_39">
    <path clip-path="url(#p1676bbd099)" d="M 120.670922 325.579132 
L 154.729078 325.579132 
" style="fill:none;stroke:#4c4c4c;stroke-linecap:round;stroke-width:0.75;"/>
   </g>
   <g id="line2d_40">
    <path clip-path="url(#p1676bbd099)" d="M 92.162971 227.215459 
L 183.237029 227.215459 
" style="fill:none;stroke:#4c4c4c;stroke-linecap:round;stroke-width:0.75;"/>
   </g>
   <g id="line2d_41">
    <path clip-path="url(#p1676bbd099)" d="M 92.162971 227.215459 
L 183.237029 227.215459 
" style="fill:none;stroke:#4c4c4c;stroke-linecap:round;stroke-width:0.75;"/>
   </g>
   <g id="line2d_42">
    <path clip-path="url(#p1676bbd099)" d="M 72.386106 251.806377 
L 203.013894 251.806377 
" style="fill:none;stroke:#4c4c4c;stroke-linecap:round;stroke-width:0.75;"/>
   </g>
   <g id="line2d_43">
    <path clip-path="url(#p1676bbd099)" d="M 72.386106 251.806377 
L 203.013894 251.806377 
" style="fill:none;stroke:#4c4c4c;stroke-linecap:round;stroke-width:0.75;"/>
   </g>
   <g id="line2d_44">
    <path clip-path="url(#p1676bbd099)" d="M 79.360897 288.692755 
L 196.039103 288.692755 
" style="fill:none;stroke:#4c4c4c;stroke-linecap:round;stroke-width:0.75;"/>
   </g>
   <g id="line2d_45">
    <path clip-path="url(#p1676bbd099)" d="M 71.776028 276.397296 
L 203.623972 276.397296 
" style="fill:none;stroke:#4c4c4c;stroke-linecap:round;stroke-width:0.75;"/>
   </g>
   <g id="line2d_46">
    <path clip-path="url(#p1676bbd099)" d="M 77.945587 239.510918 
L 197.454413 239.510918 
" style="fill:none;stroke:#4c4c4c;stroke-linecap:round;stroke-width:0.75;"/>
   </g>
   <g id="line2d_47">
    <path clip-path="url(#p1676bbd099)" d="M 71.776028 276.397296 
L 203.623972 276.397296 
" style="fill:none;stroke:#4c4c4c;stroke-linecap:round;stroke-width:0.75;"/>
   </g>
   <g id="line2d_48">
    <path clip-path="url(#p1676bbd099)" d="M 113.278359 202.624541 
L 162.121641 202.624541 
" style="fill:none;stroke:#4c4c4c;stroke-linecap:round;stroke-width:0.75;"/>
   </g>
   <g id="line2d_49">
    <path clip-path="url(#p1676bbd099)" d="M 103.916392 214.92 
L 171.483608 214.92 
" style="fill:none;stroke:#4c4c4c;stroke-linecap:round;stroke-width:0.75;"/>
   </g>
   <g id="line2d_50">
    <path clip-path="url(#p1676bbd099)" d="M 103.916392 214.92 
L 171.483608 214.92 
" style="fill:none;stroke:#4c4c4c;stroke-linecap:round;stroke-width:0.75;"/>
   </g>
   <g id="line2d_51">
    <path clip-path="url(#p1676bbd099)" d="M 119.29325 190.329082 
L 156.10675 190.329082 
" style="fill:none;stroke:#4c4c4c;stroke-linecap:round;stroke-width:0.75;"/>
   </g>
   <g id="line2d_52">
    <path clip-path="url(#p1676bbd099)" d="M 79.360897 288.692755 
L 196.039103 288.692755 
" style="fill:none;stroke:#4c4c4c;stroke-linecap:round;stroke-width:0.75;"/>
   </g>
   <g id="line2d_53">
    <path clip-path="url(#p1676bbd099)" d="M 79.360897 288.692755 
L 196.039103 288.692755 
" style="fill:none;stroke:#4c4c4c;stroke-linecap:round;stroke-width:0.75;"/>
   </g>
   <g id="line2d_54">
    <path clip-path="url(#p1676bbd099)" d="M 103.916392 214.92 
L 171.483608 214.92 
" style="fill:none;stroke:#4c4c4c;stroke-linecap:round;stroke-width:0.75;"/>
   </g>
   <g id="line2d_55">
    <path clip-path="url(#p1676bbd099)" d="M 77.945587 239.510918 
L 197.454413 239.510918 
" style="fill:none;stroke:#4c4c4c;stroke-linecap:round;stroke-width:0.75;"/>
   </g>
   <g id="line2d_56">
    <path clip-path="url(#p1676bbd099)" d="M 109.902875 313.283673 
L 165.497125 313.283673 
" style="fill:none;stroke:#4c4c4c;stroke-linecap:round;stroke-width:0.75;"/>
   </g>
   <g id="line2d_57">
    <path clip-path="url(#p1676bbd099)" d="M 124.51305 178.033623 
L 150.88695 178.033623 
" style="fill:none;stroke:#4c4c4c;stroke-linecap:round;stroke-width:0.75;"/>
   </g>
   <g id="line2d_58">
    <path clip-path="url(#p1676bbd099)" d="M 72.386106 251.806377 
L 203.013894 251.806377 
" style="fill:none;stroke:#4c4c4c;stroke-linecap:round;stroke-width:0.75;"/>
   </g>
   <g id="line2d_59">
    <path clip-path="url(#p1676bbd099)" d="M 72.386106 251.806377 
L 203.013894 251.806377 
" style="fill:none;stroke:#4c4c4c;stroke-linecap:round;stroke-width:0.75;"/>
   </g>
   <g id="line2d_60">
    <path clip-path="url(#p1676bbd099)" d="M 71.64594 264.101837 
L 203.75406 264.101837 
" style="fill:none;stroke:#4c4c4c;stroke-linecap:round;stroke-width:0.75;"/>
   </g>
   <g id="line2d_61">
    <path clip-path="url(#p1676bbd099)" d="M 71.776028 276.397296 
L 203.623972 276.397296 
" style="fill:none;stroke:#4c4c4c;stroke-linecap:round;stroke-width:0.75;"/>
   </g>
   <g id="line2d_62">
    <path clip-path="url(#p1676bbd099)" d="M 119.29325 190.329082 
L 156.10675 190.329082 
" style="fill:none;stroke:#4c4c4c;stroke-linecap:round;stroke-width:0.75;"/>
   </g>
   <g id="line2d_63">
    <path clip-path="url(#p1676bbd099)" d="M 71.64594 264.101837 
L 203.75406 264.101837 
" style="fill:none;stroke:#4c4c4c;stroke-linecap:round;stroke-width:0.75;"/>
   </g>
   <g id="line2d_64">
    <path clip-path="url(#p1676bbd099)" d="M 103.916392 214.92 
L 171.483608 214.92 
" style="fill:none;stroke:#4c4c4c;stroke-linecap:round;stroke-width:0.75;"/>
   </g>
   <g id="line2d_65">
    <path clip-path="url(#p1676bbd099)" d="M 77.945587 239.510918 
L 197.454413 239.510918 
" style="fill:none;stroke:#4c4c4c;stroke-linecap:round;stroke-width:0.75;"/>
   </g>
   <g id="line2d_66">
    <path clip-path="url(#p1676bbd099)" d="M 72.386106 251.806377 
L 203.013894 251.806377 
" style="fill:none;stroke:#4c4c4c;stroke-linecap:round;stroke-width:0.75;"/>
   </g>
   <g id="line2d_67">
    <path clip-path="url(#p1676bbd099)" d="M 71.64594 264.101837 
L 203.75406 264.101837 
" style="fill:none;stroke:#4c4c4c;stroke-linecap:round;stroke-width:0.75;"/>
   </g>
   <g id="line2d_68">
    <path clip-path="url(#p1676bbd099)" d="M 72.386106 251.806377 
L 203.013894 251.806377 
" style="fill:none;stroke:#4c4c4c;stroke-linecap:round;stroke-width:0.75;"/>
   </g>
   <g id="line2d_69">
    <path clip-path="url(#p1676bbd099)" d="M 77.945587 239.510918 
L 197.454413 239.510918 
" style="fill:none;stroke:#4c4c4c;stroke-linecap:round;stroke-width:0.75;"/>
   </g>
   <g id="line2d_70">
    <path clip-path="url(#p1676bbd099)" d="M 103.916392 214.92 
L 171.483608 214.92 
" style="fill:none;stroke:#4c4c4c;stroke-linecap:round;stroke-width:0.75;"/>
   </g>
   <g id="line2d_71">
    <path clip-path="url(#p1676bbd099)" d="M 71.64594 264.101837 
L 203.75406 264.101837 
" style="fill:none;stroke:#4c4c4c;stroke-linecap:round;stroke-width:0.75;"/>
   </g>
   <g id="line2d_72">
    <path clip-path="url(#p1676bbd099)" d="M 71.776028 276.397296 
L 203.623972 276.397296 
" style="fill:none;stroke:#4c4c4c;stroke-linecap:round;stroke-width:0.75;"/>
   </g>
   <g id="line2d_73">
    <path clip-path="url(#p1676bbd099)" d="M 135.220628 128.851786 
L 140.179372 128.851786 
" style="fill:none;stroke:#4c4c4c;stroke-linecap:round;stroke-width:0.75;"/>
   </g>
   <g id="line2d_74">
    <path clip-path="url(#p1676bbd099)" d="M 77.945587 239.510918 
L 197.454413 239.510918 
" style="fill:none;stroke:#4c4c4c;stroke-linecap:round;stroke-width:0.75;"/>
   </g>
   <g id="line2d_75">
    <path clip-path="url(#p1676bbd099)" d="M 72.386106 251.806377 
L 203.013894 251.806377 
" style="fill:none;stroke:#4c4c4c;stroke-linecap:round;stroke-width:0.75;"/>
   </g>
   <g id="line2d_76">
    <path clip-path="url(#p1676bbd099)" d="M 79.360897 288.692755 
L 196.039103 288.692755 
" style="fill:none;stroke:#4c4c4c;stroke-linecap:round;stroke-width:0.75;"/>
   </g>
   <g id="line2d_77">
    <path clip-path="url(#p1676bbd099)" d="M 119.29325 190.329082 
L 156.10675 190.329082 
" style="fill:none;stroke:#4c4c4c;stroke-linecap:round;stroke-width:0.75;"/>
   </g>
   <g id="line2d_78">
    <path clip-path="url(#p1676bbd099)" d="M 71.776028 276.397296 
L 203.623972 276.397296 
" style="fill:none;stroke:#4c4c4c;stroke-linecap:round;stroke-width:0.75;"/>
   </g>
   <g id="line2d_79">
    <path clip-path="url(#p1676bbd099)" d="M 79.360897 288.692755 
L 196.039103 288.692755 
" style="fill:none;stroke:#4c4c4c;stroke-linecap:round;stroke-width:0.75;"/>
   </g>
   <g id="line2d_80">
    <path clip-path="url(#p1676bbd099)" d="M 119.29325 190.329082 
L 156.10675 190.329082 
" style="fill:none;stroke:#4c4c4c;stroke-linecap:round;stroke-width:0.75;"/>
   </g>
   <g id="line2d_81">
    <path clip-path="url(#p1676bbd099)" d="M 79.360897 288.692755 
L 196.039103 288.692755 
" style="fill:none;stroke:#4c4c4c;stroke-linecap:round;stroke-width:0.75;"/>
   </g>
   <g id="line2d_82">
    <path clip-path="url(#p1676bbd099)" d="M 79.360897 288.692755 
L 196.039103 288.692755 
" style="fill:none;stroke:#4c4c4c;stroke-linecap:round;stroke-width:0.75;"/>
   </g>
   <g id="line2d_83">
    <path clip-path="url(#p1676bbd099)" d="M 79.360897 288.692755 
L 196.039103 288.692755 
" style="fill:none;stroke:#4c4c4c;stroke-linecap:round;stroke-width:0.75;"/>
   </g>
   <g id="line2d_84">
    <path clip-path="url(#p1676bbd099)" d="M 71.776028 276.397296 
L 203.623972 276.397296 
" style="fill:none;stroke:#4c4c4c;stroke-linecap:round;stroke-width:0.75;"/>
   </g>
   <g id="line2d_85">
    <path clip-path="url(#p1676bbd099)" d="M 77.945587 239.510918 
L 197.454413 239.510918 
" style="fill:none;stroke:#4c4c4c;stroke-linecap:round;stroke-width:0.75;"/>
   </g>
   <g id="line2d_86">
    <path clip-path="url(#p1676bbd099)" d="M 71.776028 276.397296 
L 203.623972 276.397296 
" style="fill:none;stroke:#4c4c4c;stroke-linecap:round;stroke-width:0.75;"/>
   </g>
   <g id="line2d_87">
    <path clip-path="url(#p1676bbd099)" d="M 71.64594 264.101837 
L 203.75406 264.101837 
" style="fill:none;stroke:#4c4c4c;stroke-linecap:round;stroke-width:0.75;"/>
   </g>
   <g id="line2d_88">
    <path clip-path="url(#p1676bbd099)" d="M 72.386106 251.806377 
L 203.013894 251.806377 
" style="fill:none;stroke:#4c4c4c;stroke-linecap:round;stroke-width:0.75;"/>
   </g>
   <g id="line2d_89">
    <path clip-path="url(#p1676bbd099)" d="M 119.29325 190.329082 
L 156.10675 190.329082 
" style="fill:none;stroke:#4c4c4c;stroke-linecap:round;stroke-width:0.75;"/>
   </g>
   <g id="line2d_90">
    <path clip-path="url(#p1676bbd099)" d="M 79.360897 288.692755 
L 196.039103 288.692755 
" style="fill:none;stroke:#4c4c4c;stroke-linecap:round;stroke-width:0.75;"/>
   </g>
   <g id="line2d_91">
    <path clip-path="url(#p1676bbd099)" d="M 77.945587 239.510918 
L 197.454413 239.510918 
" style="fill:none;stroke:#4c4c4c;stroke-linecap:round;stroke-width:0.75;"/>
   </g>
   <g id="line2d_92">
    <path clip-path="url(#p1676bbd099)" d="M 94.869632 300.988214 
L 180.530368 300.988214 
" style="fill:none;stroke:#4c4c4c;stroke-linecap:round;stroke-width:0.75;"/>
   </g>
   <g id="line2d_93">
    <path clip-path="url(#p1676bbd099)" d="M 77.945587 239.510918 
L 197.454413 239.510918 
" style="fill:none;stroke:#4c4c4c;stroke-linecap:round;stroke-width:0.75;"/>
   </g>
   <g id="line2d_94">
    <path clip-path="url(#p1676bbd099)" d="M 71.776028 276.397296 
L 203.623972 276.397296 
" style="fill:none;stroke:#4c4c4c;stroke-linecap:round;stroke-width:0.75;"/>
   </g>
   <g id="line2d_95">
    <path clip-path="url(#p1676bbd099)" d="M 109.902875 313.283673 
L 165.497125 313.283673 
" style="fill:none;stroke:#4c4c4c;stroke-linecap:round;stroke-width:0.75;"/>
   </g>
   <g id="line2d_96">
    <path clip-path="url(#p1676bbd099)" d="M 71.776028 276.397296 
L 203.623972 276.397296 
" style="fill:none;stroke:#4c4c4c;stroke-linecap:round;stroke-width:0.75;"/>
   </g>
   <g id="line2d_97">
    <path clip-path="url(#p1676bbd099)" d="M 109.902875 313.283673 
L 165.497125 313.283673 
" style="fill:none;stroke:#4c4c4c;stroke-linecap:round;stroke-width:0.75;"/>
   </g>
   <g id="line2d_98">
    <path clip-path="url(#p1676bbd099)" d="M 109.902875 313.283673 
L 165.497125 313.283673 
" style="fill:none;stroke:#4c4c4c;stroke-linecap:round;stroke-width:0.75;"/>
   </g>
   <g id="line2d_99">
    <path clip-path="url(#p1676bbd099)" d="M 77.945587 239.510918 
L 197.454413 239.510918 
" style="fill:none;stroke:#4c4c4c;stroke-linecap:round;stroke-width:0.75;"/>
   </g>
   <g id="line2d_100">
    <path clip-path="url(#p1676bbd099)" d="M 72.386106 251.806377 
L 203.013894 251.806377 
" style="fill:none;stroke:#4c4c4c;stroke-linecap:round;stroke-width:0.75;"/>
   </g>
   <g id="line2d_101">
    <path clip-path="url(#p1676bbd099)" d="M 71.64594 264.101837 
L 203.75406 264.101837 
" style="fill:none;stroke:#4c4c4c;stroke-linecap:round;stroke-width:0.75;"/>
   </g>
   <g id="line2d_102">
    <path clip-path="url(#p1676bbd099)" d="M 92.162971 227.215459 
L 183.237029 227.215459 
" style="fill:none;stroke:#4c4c4c;stroke-linecap:round;stroke-width:0.75;"/>
   </g>
   <g id="line2d_103">
    <path clip-path="url(#p1676bbd099)" d="M 72.386106 251.806377 
L 203.013894 251.806377 
" style="fill:none;stroke:#4c4c4c;stroke-linecap:round;stroke-width:0.75;"/>
   </g>
   <g id="line2d_104">
    <path clip-path="url(#p1676bbd099)" d="M 79.360897 288.692755 
L 196.039103 288.692755 
" style="fill:none;stroke:#4c4c4c;stroke-linecap:round;stroke-width:0.75;"/>
   </g>
   <g id="line2d_105">
    <path clip-path="url(#p1676bbd099)" d="M 94.869632 300.988214 
L 180.530368 300.988214 
" style="fill:none;stroke:#4c4c4c;stroke-linecap:round;stroke-width:0.75;"/>
   </g>
   <g id="line2d_106">
    <path clip-path="url(#p1676bbd099)" d="M 109.902875 313.283673 
L 165.497125 313.283673 
" style="fill:none;stroke:#4c4c4c;stroke-linecap:round;stroke-width:0.75;"/>
   </g>
   <g id="line2d_107">
    <path clip-path="url(#p1676bbd099)" d="M 77.945587 239.510918 
L 197.454413 239.510918 
" style="fill:none;stroke:#4c4c4c;stroke-linecap:round;stroke-width:0.75;"/>
   </g>
   <g id="line2d_108">
    <path clip-path="url(#p1676bbd099)" d="M 71.776028 276.397296 
L 203.623972 276.397296 
" style="fill:none;stroke:#4c4c4c;stroke-linecap:round;stroke-width:0.75;"/>
   </g>
   <g id="line2d_109">
    <path clip-path="url(#p1676bbd099)" d="M 79.360897 288.692755 
L 196.039103 288.692755 
" style="fill:none;stroke:#4c4c4c;stroke-linecap:round;stroke-width:0.75;"/>
   </g>
   <g id="line2d_110">
    <path clip-path="url(#p1676bbd099)" d="M 71.64594 264.101837 
L 203.75406 264.101837 
" style="fill:none;stroke:#4c4c4c;stroke-linecap:round;stroke-width:0.75;"/>
   </g>
   <g id="line2d_111">
    <path clip-path="url(#p1676bbd099)" d="M 92.162971 227.215459 
L 183.237029 227.215459 
" style="fill:none;stroke:#4c4c4c;stroke-linecap:round;stroke-width:0.75;"/>
   </g>
   <g id="line2d_112">
    <path clip-path="url(#p1676bbd099)" d="M 94.869632 300.988214 
L 180.530368 300.988214 
" style="fill:none;stroke:#4c4c4c;stroke-linecap:round;stroke-width:0.75;"/>
   </g>
   <g id="line2d_113">
    <path clip-path="url(#p1676bbd099)" d="M 109.902875 313.283673 
L 165.497125 313.283673 
" style="fill:none;stroke:#4c4c4c;stroke-linecap:round;stroke-width:0.75;"/>
   </g>
   <g id="line2d_114">
    <path clip-path="url(#p1676bbd099)" d="M 77.945587 239.510918 
L 197.454413 239.510918 
" style="fill:none;stroke:#4c4c4c;stroke-linecap:round;stroke-width:0.75;"/>
   </g>
   <g id="line2d_115">
    <path clip-path="url(#p1676bbd099)" d="M 132.339849 153.442704 
L 143.060151 153.442704 
" style="fill:none;stroke:#4c4c4c;stroke-linecap:round;stroke-width:0.75;"/>
   </g>
   <g id="line2d_116">
    <path clip-path="url(#p1676bbd099)" d="M 72.386106 251.806377 
L 203.013894 251.806377 
" style="fill:none;stroke:#4c4c4c;stroke-linecap:round;stroke-width:0.75;"/>
   </g>
   <g id="line2d_117">
    <path clip-path="url(#p1676bbd099)" d="M 94.869632 300.988214 
L 180.530368 300.988214 
" style="fill:none;stroke:#4c4c4c;stroke-linecap:round;stroke-width:0.75;"/>
   </g>
   <g id="line2d_118">
    <path clip-path="url(#p1676bbd099)" d="M 72.386106 251.806377 
L 203.013894 251.806377 
" style="fill:none;stroke:#4c4c4c;stroke-linecap:round;stroke-width:0.75;"/>
   </g>
   <g id="line2d_119">
    <path clip-path="url(#p1676bbd099)" d="M 113.278359 202.624541 
L 162.121641 202.624541 
" style="fill:none;stroke:#4c4c4c;stroke-linecap:round;stroke-width:0.75;"/>
   </g>
   <g id="line2d_120">
    <path clip-path="url(#p1676bbd099)" d="M 113.278359 202.624541 
L 162.121641 202.624541 
" style="fill:none;stroke:#4c4c4c;stroke-linecap:round;stroke-width:0.75;"/>
   </g>
   <g id="line2d_121">
    <path clip-path="url(#p1676bbd099)" d="M 71.776028 276.397296 
L 203.623972 276.397296 
" style="fill:none;stroke:#4c4c4c;stroke-linecap:round;stroke-width:0.75;"/>
   </g>
   <g id="line2d_122">
    <path clip-path="url(#p1676bbd099)" d="M 71.776028 276.397296 
L 203.623972 276.397296 
" style="fill:none;stroke:#4c4c4c;stroke-linecap:round;stroke-width:0.75;"/>
   </g>
   <g id="line2d_123">
    <path clip-path="url(#p1676bbd099)" d="M 72.386106 251.806377 
L 203.013894 251.806377 
" style="fill:none;stroke:#4c4c4c;stroke-linecap:round;stroke-width:0.75;"/>
   </g>
   <g id="line2d_124">
    <path clip-path="url(#p1676bbd099)" d="M 92.162971 227.215459 
L 183.237029 227.215459 
" style="fill:none;stroke:#4c4c4c;stroke-linecap:round;stroke-width:0.75;"/>
   </g>
   <g id="line2d_125">
    <path clip-path="url(#p1676bbd099)" d="M 92.162971 227.215459 
L 183.237029 227.215459 
" style="fill:none;stroke:#4c4c4c;stroke-linecap:round;stroke-width:0.75;"/>
   </g>
   <g id="line2d_126">
    <path clip-path="url(#p1676bbd099)" d="M 71.776028 276.397296 
L 203.623972 276.397296 
" style="fill:none;stroke:#4c4c4c;stroke-linecap:round;stroke-width:0.75;"/>
   </g>
   <g id="line2d_127">
    <path clip-path="url(#p1676bbd099)" d="M 71.776028 276.397296 
L 203.623972 276.397296 
" style="fill:none;stroke:#4c4c4c;stroke-linecap:round;stroke-width:0.75;"/>
   </g>
   <g id="line2d_128">
    <path clip-path="url(#p1676bbd099)" d="M 103.916392 214.92 
L 171.483608 214.92 
" style="fill:none;stroke:#4c4c4c;stroke-linecap:round;stroke-width:0.75;"/>
   </g>
   <g id="line2d_129">
    <path clip-path="url(#p1676bbd099)" d="M 119.29325 190.329082 
L 156.10675 190.329082 
" style="fill:none;stroke:#4c4c4c;stroke-linecap:round;stroke-width:0.75;"/>
   </g>
   <g id="line2d_130">
    <path clip-path="url(#p1676bbd099)" d="M 260.31912 251.806377 
L 349.88088 251.806377 
" style="fill:none;stroke:#4c4c4c;stroke-linecap:round;stroke-width:0.75;"/>
   </g>
   <g id="line2d_131">
    <path clip-path="url(#p1676bbd099)" d="M 299.344119 153.442704 
L 310.855881 153.442704 
" style="fill:none;stroke:#4c4c4c;stroke-linecap:round;stroke-width:0.75;"/>
   </g>
   <g id="line2d_132">
    <path clip-path="url(#p1676bbd099)" d="M 260.31912 251.806377 
L 349.88088 251.806377 
" style="fill:none;stroke:#4c4c4c;stroke-linecap:round;stroke-width:0.75;"/>
   </g>
   <g id="line2d_133">
    <path clip-path="url(#p1676bbd099)" d="M 276.459683 325.579132 
L 333.740317 325.579132 
" style="fill:none;stroke:#4c4c4c;stroke-linecap:round;stroke-width:0.75;"/>
   </g>
   <g id="line2d_134">
    <path clip-path="url(#p1676bbd099)" d="M 279.019999 227.215459 
L 331.180001 227.215459 
" style="fill:none;stroke:#4c4c4c;stroke-linecap:round;stroke-width:0.75;"/>
   </g>
   <g id="line2d_135">
    <path clip-path="url(#p1676bbd099)" d="M 259.039211 300.988214 
L 351.160789 300.988214 
" style="fill:none;stroke:#4c4c4c;stroke-linecap:round;stroke-width:0.75;"/>
   </g>
   <g id="line2d_136">
    <path clip-path="url(#p1676bbd099)" d="M 265.338536 313.283673 
L 344.861464 313.283673 
" style="fill:none;stroke:#4c4c4c;stroke-linecap:round;stroke-width:0.75;"/>
   </g>
   <g id="line2d_137">
    <path clip-path="url(#p1676bbd099)" d="M 255.518576 276.397296 
L 354.681424 276.397296 
" style="fill:none;stroke:#4c4c4c;stroke-linecap:round;stroke-width:0.75;"/>
   </g>
   <g id="line2d_138">
    <path clip-path="url(#p1676bbd099)" d="M 276.459683 325.579132 
L 333.740317 325.579132 
" style="fill:none;stroke:#4c4c4c;stroke-linecap:round;stroke-width:0.75;"/>
   </g>
   <g id="line2d_139">
    <path clip-path="url(#p1676bbd099)" d="M 260.31912 251.806377 
L 349.88088 251.806377 
" style="fill:none;stroke:#4c4c4c;stroke-linecap:round;stroke-width:0.75;"/>
   </g>
   <g id="line2d_140">
    <path clip-path="url(#p1676bbd099)" d="M 255.94005 264.101837 
L 354.25995 264.101837 
" style="fill:none;stroke:#4c4c4c;stroke-linecap:round;stroke-width:0.75;"/>
   </g>
   <g id="line2d_141">
    <path clip-path="url(#p1676bbd099)" d="M 255.94005 264.101837 
L 354.25995 264.101837 
" style="fill:none;stroke:#4c4c4c;stroke-linecap:round;stroke-width:0.75;"/>
   </g>
   <g id="line2d_142">
    <path clip-path="url(#p1676bbd099)" d="M 255.518576 276.397296 
L 354.681424 276.397296 
" style="fill:none;stroke:#4c4c4c;stroke-linecap:round;stroke-width:0.75;"/>
   </g>
   <g id="line2d_143">
    <path clip-path="url(#p1676bbd099)" d="M 292.552926 202.624541 
L 317.647074 202.624541 
" style="fill:none;stroke:#4c4c4c;stroke-linecap:round;stroke-width:0.75;"/>
   </g>
   <g id="line2d_144">
    <path clip-path="url(#p1676bbd099)" d="M 268.957757 239.510918 
L 341.242243 239.510918 
" style="fill:none;stroke:#4c4c4c;stroke-linecap:round;stroke-width:0.75;"/>
   </g>
   <g id="line2d_145">
    <path clip-path="url(#p1676bbd099)" d="M 260.31912 251.806377 
L 349.88088 251.806377 
" style="fill:none;stroke:#4c4c4c;stroke-linecap:round;stroke-width:0.75;"/>
   </g>
   <g id="line2d_146">
    <path clip-path="url(#p1676bbd099)" d="M 259.039211 300.988214 
L 351.160789 300.988214 
" style="fill:none;stroke:#4c4c4c;stroke-linecap:round;stroke-width:0.75;"/>
   </g>
   <g id="line2d_147">
    <path clip-path="url(#p1676bbd099)" d="M 255.518576 276.397296 
L 354.681424 276.397296 
" style="fill:none;stroke:#4c4c4c;stroke-linecap:round;stroke-width:0.75;"/>
   </g>
   <g id="line2d_148">
    <path clip-path="url(#p1676bbd099)" d="M 255.518576 276.397296 
L 354.681424 276.397296 
" style="fill:none;stroke:#4c4c4c;stroke-linecap:round;stroke-width:0.75;"/>
   </g>
   <g id="line2d_149">
    <path clip-path="url(#p1676bbd099)" d="M 256.648862 288.692755 
L 353.551138 288.692755 
" style="fill:none;stroke:#4c4c4c;stroke-linecap:round;stroke-width:0.75;"/>
   </g>
   <g id="line2d_150">
    <path clip-path="url(#p1676bbd099)" d="M 268.957757 239.510918 
L 341.242243 239.510918 
" style="fill:none;stroke:#4c4c4c;stroke-linecap:round;stroke-width:0.75;"/>
   </g>
   <g id="line2d_151">
    <path clip-path="url(#p1676bbd099)" d="M 256.648862 288.692755 
L 353.551138 288.692755 
" style="fill:none;stroke:#4c4c4c;stroke-linecap:round;stroke-width:0.75;"/>
   </g>
   <g id="line2d_152">
    <path clip-path="url(#p1676bbd099)" d="M 255.94005 264.101837 
L 354.25995 264.101837 
" style="fill:none;stroke:#4c4c4c;stroke-linecap:round;stroke-width:0.75;"/>
   </g>
   <g id="line2d_153">
    <path clip-path="url(#p1676bbd099)" d="M 265.338536 313.283673 
L 344.861464 313.283673 
" style="fill:none;stroke:#4c4c4c;stroke-linecap:round;stroke-width:0.75;"/>
   </g>
   <g id="line2d_154">
    <path clip-path="url(#p1676bbd099)" d="M 255.518576 276.397296 
L 354.681424 276.397296 
" style="fill:none;stroke:#4c4c4c;stroke-linecap:round;stroke-width:0.75;"/>
   </g>
   <g id="line2d_155">
    <path clip-path="url(#p1676bbd099)" d="M 255.94005 264.101837 
L 354.25995 264.101837 
" style="fill:none;stroke:#4c4c4c;stroke-linecap:round;stroke-width:0.75;"/>
   </g>
   <g id="line2d_156">
    <path clip-path="url(#p1676bbd099)" d="M 292.552926 202.624541 
L 317.647074 202.624541 
" style="fill:none;stroke:#4c4c4c;stroke-linecap:round;stroke-width:0.75;"/>
   </g>
   <g id="line2d_157">
    <path clip-path="url(#p1676bbd099)" d="M 279.019999 227.215459 
L 331.180001 227.215459 
" style="fill:none;stroke:#4c4c4c;stroke-linecap:round;stroke-width:0.75;"/>
   </g>
   <g id="line2d_158">
    <path clip-path="url(#p1676bbd099)" d="M 292.552926 202.624541 
L 317.647074 202.624541 
" style="fill:none;stroke:#4c4c4c;stroke-linecap:round;stroke-width:0.75;"/>
   </g>
   <g id="line2d_159">
    <path clip-path="url(#p1676bbd099)" d="M 255.518576 276.397296 
L 354.681424 276.397296 
" style="fill:none;stroke:#4c4c4c;stroke-linecap:round;stroke-width:0.75;"/>
   </g>
   <g id="line2d_160">
    <path clip-path="url(#p1676bbd099)" d="M 265.338536 313.283673 
L 344.861464 313.283673 
" style="fill:none;stroke:#4c4c4c;stroke-linecap:round;stroke-width:0.75;"/>
   </g>
   <g id="line2d_161">
    <path clip-path="url(#p1676bbd099)" d="M 265.338536 313.283673 
L 344.861464 313.283673 
" style="fill:none;stroke:#4c4c4c;stroke-linecap:round;stroke-width:0.75;"/>
   </g>
   <g id="line2d_162">
    <path clip-path="url(#p1676bbd099)" d="M 260.31912 251.806377 
L 349.88088 251.806377 
" style="fill:none;stroke:#4c4c4c;stroke-linecap:round;stroke-width:0.75;"/>
   </g>
   <g id="line2d_163">
    <path clip-path="url(#p1676bbd099)" d="M 288.633034 214.92 
L 321.566966 214.92 
" style="fill:none;stroke:#4c4c4c;stroke-linecap:round;stroke-width:0.75;"/>
   </g>
   <g id="line2d_164">
    <path clip-path="url(#p1676bbd099)" d="M 295.647442 178.033623 
L 314.552558 178.033623 
" style="fill:none;stroke:#4c4c4c;stroke-linecap:round;stroke-width:0.75;"/>
   </g>
   <g id="line2d_165">
    <path clip-path="url(#p1676bbd099)" d="M 255.94005 264.101837 
L 354.25995 264.101837 
" style="fill:none;stroke:#4c4c4c;stroke-linecap:round;stroke-width:0.75;"/>
   </g>
   <g id="line2d_166">
    <path clip-path="url(#p1676bbd099)" d="M 268.957757 239.510918 
L 341.242243 239.510918 
" style="fill:none;stroke:#4c4c4c;stroke-linecap:round;stroke-width:0.75;"/>
   </g>
   <g id="line2d_167">
    <path clip-path="url(#p1676bbd099)" d="M 259.039211 300.988214 
L 351.160789 300.988214 
" style="fill:none;stroke:#4c4c4c;stroke-linecap:round;stroke-width:0.75;"/>
   </g>
   <g id="line2d_168">
    <path clip-path="url(#p1676bbd099)" d="M 265.338536 313.283673 
L 344.861464 313.283673 
" style="fill:none;stroke:#4c4c4c;stroke-linecap:round;stroke-width:0.75;"/>
   </g>
   <g id="line2d_169">
    <path clip-path="url(#p1676bbd099)" d="M 294.300982 190.329082 
L 315.899018 190.329082 
" style="fill:none;stroke:#4c4c4c;stroke-linecap:round;stroke-width:0.75;"/>
   </g>
   <g id="line2d_170">
    <path clip-path="url(#p1676bbd099)" d="M 279.019999 227.215459 
L 331.180001 227.215459 
" style="fill:none;stroke:#4c4c4c;stroke-linecap:round;stroke-width:0.75;"/>
   </g>
   <g id="line2d_171">
    <path clip-path="url(#p1676bbd099)" d="M 260.31912 251.806377 
L 349.88088 251.806377 
" style="fill:none;stroke:#4c4c4c;stroke-linecap:round;stroke-width:0.75;"/>
   </g>
   <g id="line2d_172">
    <path clip-path="url(#p1676bbd099)" d="M 276.459683 325.579132 
L 333.740317 325.579132 
" style="fill:none;stroke:#4c4c4c;stroke-linecap:round;stroke-width:0.75;"/>
   </g>
   <g id="line2d_173">
    <path clip-path="url(#p1676bbd099)" d="M 260.31912 251.806377 
L 349.88088 251.806377 
" style="fill:none;stroke:#4c4c4c;stroke-linecap:round;stroke-width:0.75;"/>
   </g>
   <g id="line2d_174">
    <path clip-path="url(#p1676bbd099)" d="M 268.957757 239.510918 
L 341.242243 239.510918 
" style="fill:none;stroke:#4c4c4c;stroke-linecap:round;stroke-width:0.75;"/>
   </g>
   <g id="line2d_175">
    <path clip-path="url(#p1676bbd099)" d="M 259.039211 300.988214 
L 351.160789 300.988214 
" style="fill:none;stroke:#4c4c4c;stroke-linecap:round;stroke-width:0.75;"/>
   </g>
   <g id="line2d_176">
    <path clip-path="url(#p1676bbd099)" d="M 276.459683 325.579132 
L 333.740317 325.579132 
" style="fill:none;stroke:#4c4c4c;stroke-linecap:round;stroke-width:0.75;"/>
   </g>
   <g id="line2d_177">
    <path clip-path="url(#p1676bbd099)" d="M 259.039211 300.988214 
L 351.160789 300.988214 
" style="fill:none;stroke:#4c4c4c;stroke-linecap:round;stroke-width:0.75;"/>
   </g>
   <g id="line2d_178">
    <path clip-path="url(#p1676bbd099)" d="M 256.648862 288.692755 
L 353.551138 288.692755 
" style="fill:none;stroke:#4c4c4c;stroke-linecap:round;stroke-width:0.75;"/>
   </g>
   <g id="line2d_179">
    <path clip-path="url(#p1676bbd099)" d="M 260.31912 251.806377 
L 349.88088 251.806377 
" style="fill:none;stroke:#4c4c4c;stroke-linecap:round;stroke-width:0.75;"/>
   </g>
   <g id="line2d_180">
    <path clip-path="url(#p1676bbd099)" d="M 255.518576 276.397296 
L 354.681424 276.397296 
" style="fill:none;stroke:#4c4c4c;stroke-linecap:round;stroke-width:0.75;"/>
   </g>
   <g id="line2d_181">
    <path clip-path="url(#p1676bbd099)" d="M 256.648862 288.692755 
L 353.551138 288.692755 
" style="fill:none;stroke:#4c4c4c;stroke-linecap:round;stroke-width:0.75;"/>
   </g>
   <g id="line2d_182">
    <path clip-path="url(#p1676bbd099)" d="M 255.94005 264.101837 
L 354.25995 264.101837 
" style="fill:none;stroke:#4c4c4c;stroke-linecap:round;stroke-width:0.75;"/>
   </g>
   <g id="line2d_183">
    <path clip-path="url(#p1676bbd099)" d="M 255.94005 264.101837 
L 354.25995 264.101837 
" style="fill:none;stroke:#4c4c4c;stroke-linecap:round;stroke-width:0.75;"/>
   </g>
   <g id="line2d_184">
    <path clip-path="url(#p1676bbd099)" d="M 259.039211 300.988214 
L 351.160789 300.988214 
" style="fill:none;stroke:#4c4c4c;stroke-linecap:round;stroke-width:0.75;"/>
   </g>
   <g id="line2d_185">
    <path clip-path="url(#p1676bbd099)" d="M 255.518576 276.397296 
L 354.681424 276.397296 
" style="fill:none;stroke:#4c4c4c;stroke-linecap:round;stroke-width:0.75;"/>
   </g>
   <g id="line2d_186">
    <path clip-path="url(#p1676bbd099)" d="M 295.647442 178.033623 
L 314.552558 178.033623 
" style="fill:none;stroke:#4c4c4c;stroke-linecap:round;stroke-width:0.75;"/>
   </g>
   <g id="line2d_187">
    <path clip-path="url(#p1676bbd099)" d="M 255.94005 264.101837 
L 354.25995 264.101837 
" style="fill:none;stroke:#4c4c4c;stroke-linecap:round;stroke-width:0.75;"/>
   </g>
   <g id="line2d_188">
    <path clip-path="url(#p1676bbd099)" d="M 259.039211 300.988214 
L 351.160789 300.988214 
" style="fill:none;stroke:#4c4c4c;stroke-linecap:round;stroke-width:0.75;"/>
   </g>
   <g id="line2d_189">
    <path clip-path="url(#p1676bbd099)" d="M 259.039211 300.988214 
L 351.160789 300.988214 
" style="fill:none;stroke:#4c4c4c;stroke-linecap:round;stroke-width:0.75;"/>
   </g>
   <g id="line2d_190">
    <path clip-path="url(#p1676bbd099)" d="M 255.518576 276.397296 
L 354.681424 276.397296 
" style="fill:none;stroke:#4c4c4c;stroke-linecap:round;stroke-width:0.75;"/>
   </g>
   <g id="line2d_191">
    <path clip-path="url(#p1676bbd099)" d="M 265.338536 313.283673 
L 344.861464 313.283673 
" style="fill:none;stroke:#4c4c4c;stroke-linecap:round;stroke-width:0.75;"/>
   </g>
   <g id="line2d_192">
    <path clip-path="url(#p1676bbd099)" d="M 255.518576 276.397296 
L 354.681424 276.397296 
" style="fill:none;stroke:#4c4c4c;stroke-linecap:round;stroke-width:0.75;"/>
   </g>
   <g id="line2d_193">
    <path clip-path="url(#p1676bbd099)" d="M 259.039211 300.988214 
L 351.160789 300.988214 
" style="fill:none;stroke:#4c4c4c;stroke-linecap:round;stroke-width:0.75;"/>
   </g>
   <g id="line2d_194">
    <path clip-path="url(#p1676bbd099)" d="M 268.957757 239.510918 
L 341.242243 239.510918 
" style="fill:none;stroke:#4c4c4c;stroke-linecap:round;stroke-width:0.75;"/>
   </g>
   <g id="line2d_195">
    <path clip-path="url(#p1676bbd099)" d="M 301.911882 128.851786 
L 308.288118 128.851786 
" style="fill:none;stroke:#4c4c4c;stroke-linecap:round;stroke-width:0.75;"/>
   </g>
   <g id="line2d_196">
    <path clip-path="url(#p1676bbd099)" d="M 265.338536 313.283673 
L 344.861464 313.283673 
" style="fill:none;stroke:#4c4c4c;stroke-linecap:round;stroke-width:0.75;"/>
   </g>
   <g id="line2d_197">
    <path clip-path="url(#p1676bbd099)" d="M 259.039211 300.988214 
L 351.160789 300.988214 
" style="fill:none;stroke:#4c4c4c;stroke-linecap:round;stroke-width:0.75;"/>
   </g>
   <g id="line2d_198">
    <path clip-path="url(#p1676bbd099)" d="M 260.31912 251.806377 
L 349.88088 251.806377 
" style="fill:none;stroke:#4c4c4c;stroke-linecap:round;stroke-width:0.75;"/>
   </g>
   <g id="line2d_199">
    <path clip-path="url(#p1676bbd099)" d="M 279.019999 227.215459 
L 331.180001 227.215459 
" style="fill:none;stroke:#4c4c4c;stroke-linecap:round;stroke-width:0.75;"/>
   </g>
   <g id="line2d_200">
    <path clip-path="url(#p1676bbd099)" d="M 303.088654 104.260868 
L 307.111346 104.260868 
" style="fill:none;stroke:#4c4c4c;stroke-linecap:round;stroke-width:0.75;"/>
   </g>
   <g id="line2d_201">
    <path clip-path="url(#p1676bbd099)" d="M 276.459683 325.579132 
L 333.740317 325.579132 
" style="fill:none;stroke:#4c4c4c;stroke-linecap:round;stroke-width:0.75;"/>
   </g>
   <g id="line2d_202">
    <path clip-path="url(#p1676bbd099)" d="M 259.039211 300.988214 
L 351.160789 300.988214 
" style="fill:none;stroke:#4c4c4c;stroke-linecap:round;stroke-width:0.75;"/>
   </g>
   <g id="line2d_203">
    <path clip-path="url(#p1676bbd099)" d="M 276.459683 325.579132 
L 333.740317 325.579132 
" style="fill:none;stroke:#4c4c4c;stroke-linecap:round;stroke-width:0.75;"/>
   </g>
   <g id="line2d_204">
    <path clip-path="url(#p1676bbd099)" d="M 256.648862 288.692755 
L 353.551138 288.692755 
" style="fill:none;stroke:#4c4c4c;stroke-linecap:round;stroke-width:0.75;"/>
   </g>
   <g id="line2d_205">
    <path clip-path="url(#p1676bbd099)" d="M 260.31912 251.806377 
L 349.88088 251.806377 
" style="fill:none;stroke:#4c4c4c;stroke-linecap:round;stroke-width:0.75;"/>
   </g>
   <g id="line2d_206">
    <path clip-path="url(#p1676bbd099)" d="M 295.647442 178.033623 
L 314.552558 178.033623 
" style="fill:none;stroke:#4c4c4c;stroke-linecap:round;stroke-width:0.75;"/>
   </g>
   <g id="line2d_207">
    <path clip-path="url(#p1676bbd099)" d="M 255.94005 264.101837 
L 354.25995 264.101837 
" style="fill:none;stroke:#4c4c4c;stroke-linecap:round;stroke-width:0.75;"/>
   </g>
   <g id="line2d_208">
    <path clip-path="url(#p1676bbd099)" d="M 260.31912 251.806377 
L 349.88088 251.806377 
" style="fill:none;stroke:#4c4c4c;stroke-linecap:round;stroke-width:0.75;"/>
   </g>
   <g id="line2d_209">
    <path clip-path="url(#p1676bbd099)" d="M 259.039211 300.988214 
L 351.160789 300.988214 
" style="fill:none;stroke:#4c4c4c;stroke-linecap:round;stroke-width:0.75;"/>
   </g>
   <g id="line2d_210">
    <path clip-path="url(#p1676bbd099)" d="M 295.647442 178.033623 
L 314.552558 178.033623 
" style="fill:none;stroke:#4c4c4c;stroke-linecap:round;stroke-width:0.75;"/>
   </g>
   <g id="line2d_211">
    <path clip-path="url(#p1676bbd099)" d="M 265.338536 313.283673 
L 344.861464 313.283673 
" style="fill:none;stroke:#4c4c4c;stroke-linecap:round;stroke-width:0.75;"/>
   </g>
   <g id="line2d_212">
    <path clip-path="url(#p1676bbd099)" d="M 256.648862 288.692755 
L 353.551138 288.692755 
" style="fill:none;stroke:#4c4c4c;stroke-linecap:round;stroke-width:0.75;"/>
   </g>
   <g id="line2d_213">
    <path clip-path="url(#p1676bbd099)" d="M 279.019999 227.215459 
L 331.180001 227.215459 
" style="fill:none;stroke:#4c4c4c;stroke-linecap:round;stroke-width:0.75;"/>
   </g>
   <g id="line2d_214">
    <path clip-path="url(#p1676bbd099)" d="M 255.94005 264.101837 
L 354.25995 264.101837 
" style="fill:none;stroke:#4c4c4c;stroke-linecap:round;stroke-width:0.75;"/>
   </g>
   <g id="line2d_215">
    <path clip-path="url(#p1676bbd099)" d="M 299.344119 153.442704 
L 310.855881 153.442704 
" style="fill:none;stroke:#4c4c4c;stroke-linecap:round;stroke-width:0.75;"/>
   </g>
   <g id="line2d_216">
    <path clip-path="url(#p1676bbd099)" d="M 268.957757 239.510918 
L 341.242243 239.510918 
" style="fill:none;stroke:#4c4c4c;stroke-linecap:round;stroke-width:0.75;"/>
   </g>
   <g id="line2d_217">
    <path clip-path="url(#p1676bbd099)" d="M 255.94005 264.101837 
L 354.25995 264.101837 
" style="fill:none;stroke:#4c4c4c;stroke-linecap:round;stroke-width:0.75;"/>
   </g>
   <g id="line2d_218">
    <path clip-path="url(#p1676bbd099)" d="M 259.039211 300.988214 
L 351.160789 300.988214 
" style="fill:none;stroke:#4c4c4c;stroke-linecap:round;stroke-width:0.75;"/>
   </g>
   <g id="line2d_219">
    <path clip-path="url(#p1676bbd099)" d="M 265.338536 313.283673 
L 344.861464 313.283673 
" style="fill:none;stroke:#4c4c4c;stroke-linecap:round;stroke-width:0.75;"/>
   </g>
   <g id="line2d_220">
    <path clip-path="url(#p1676bbd099)" d="M 255.518576 276.397296 
L 354.681424 276.397296 
" style="fill:none;stroke:#4c4c4c;stroke-linecap:round;stroke-width:0.75;"/>
   </g>
   <g id="line2d_221">
    <path clip-path="url(#p1676bbd099)" d="M 265.338536 313.283673 
L 344.861464 313.283673 
" style="fill:none;stroke:#4c4c4c;stroke-linecap:round;stroke-width:0.75;"/>
   </g>
   <g id="line2d_222">
    <path clip-path="url(#p1676bbd099)" d="M 260.31912 251.806377 
L 349.88088 251.806377 
" style="fill:none;stroke:#4c4c4c;stroke-linecap:round;stroke-width:0.75;"/>
   </g>
   <g id="patch_3">
    <path d="M 54 378 
L 54 51.84 
" style="fill:none;stroke:#cccccc;stroke-linecap:square;stroke-linejoin:miter;stroke-width:1.25;"/>
   </g>
   <g id="patch_4">
    <path d="M 388.8 378 
L 388.8 51.84 
" style="fill:none;stroke:#cccccc;stroke-linecap:square;stroke-linejoin:miter;stroke-width:1.25;"/>
   </g>
   <g id="patch_5">
    <path d="M 54 378 
L 388.8 378 
" style="fill:none;stroke:#cccccc;stroke-linecap:square;stroke-linejoin:miter;stroke-width:1.25;"/>
   </g>
   <g id="patch_6">
    <path d="M 54 51.84 
L 388.8 51.84 
" style="fill:none;stroke:#cccccc;stroke-linecap:square;stroke-linejoin:miter;stroke-width:1.25;"/>
   </g>
   <g id="text_8">
    <!-- elix_score Distribution -->
    <g style="fill:#262626;" transform="translate(162.7125 45.84)scale(0.12 -0.12)">
     <defs>
      <path d="M 42.09375 16.703125 
L 51.171875 15.578125 
Q 49.03125 7.625 43.21875 3.21875 
Q 37.40625 -1.171875 28.375 -1.171875 
Q 17 -1.171875 10.328125 5.828125 
Q 3.65625 12.84375 3.65625 25.484375 
Q 3.65625 38.578125 10.390625 45.796875 
Q 17.140625 53.03125 27.875 53.03125 
Q 38.28125 53.03125 44.875 45.953125 
Q 51.46875 38.875 51.46875 26.03125 
Q 51.46875 25.25 51.421875 23.6875 
L 12.75 23.6875 
Q 13.234375 15.140625 17.578125 10.59375 
Q 21.921875 6.0625 28.421875 6.0625 
Q 33.25 6.0625 36.671875 8.59375 
Q 40.09375 11.140625 42.09375 16.703125 
z
M 13.234375 30.90625 
L 42.1875 30.90625 
Q 41.609375 37.453125 38.875 40.71875 
Q 34.671875 45.796875 27.984375 45.796875 
Q 21.921875 45.796875 17.796875 41.75 
Q 13.671875 37.703125 13.234375 30.90625 
z
" id="ArialMT-101"/>
      <path d="M 6.390625 0 
L 6.390625 71.578125 
L 15.1875 71.578125 
L 15.1875 0 
z
" id="ArialMT-108"/>
      <path d="M 6.640625 61.46875 
L 6.640625 71.578125 
L 15.4375 71.578125 
L 15.4375 61.46875 
z
M 6.640625 0 
L 6.640625 51.859375 
L 15.4375 51.859375 
L 15.4375 0 
z
" id="ArialMT-105"/>
      <path d="M 0.734375 0 
L 19.671875 26.953125 
L 2.15625 51.859375 
L 13.140625 51.859375 
L 21.09375 39.703125 
Q 23.34375 36.234375 24.703125 33.890625 
Q 26.859375 37.109375 28.65625 39.59375 
L 37.40625 51.859375 
L 47.90625 51.859375 
L 29.984375 27.4375 
L 49.265625 0 
L 38.484375 0 
L 27.828125 16.109375 
L 25 20.453125 
L 11.375 0 
z
" id="ArialMT-120"/>
      <path d="M -1.515625 -19.875 
L -1.515625 -13.53125 
L 56.734375 -13.53125 
L 56.734375 -19.875 
z
" id="ArialMT-95"/>
      <path d="M 3.078125 15.484375 
L 11.765625 16.84375 
Q 12.5 11.625 15.84375 8.84375 
Q 19.1875 6.0625 25.203125 6.0625 
Q 31.25 6.0625 34.171875 8.515625 
Q 37.109375 10.984375 37.109375 14.3125 
Q 37.109375 17.28125 34.515625 19 
Q 32.71875 20.171875 25.53125 21.96875 
Q 15.875 24.421875 12.140625 26.203125 
Q 8.40625 27.984375 6.46875 31.125 
Q 4.546875 34.28125 4.546875 38.09375 
Q 4.546875 41.546875 6.125 44.5 
Q 7.71875 47.46875 10.453125 49.421875 
Q 12.5 50.921875 16.03125 51.96875 
Q 19.578125 53.03125 23.640625 53.03125 
Q 29.734375 53.03125 34.34375 51.265625 
Q 38.96875 49.515625 41.15625 46.5 
Q 43.359375 43.5 44.1875 38.484375 
L 35.59375 37.3125 
Q 35.015625 41.3125 32.203125 43.546875 
Q 29.390625 45.796875 24.265625 45.796875 
Q 18.21875 45.796875 15.625 43.796875 
Q 13.03125 41.796875 13.03125 39.109375 
Q 13.03125 37.40625 14.109375 36.03125 
Q 15.1875 34.625 17.484375 33.6875 
Q 18.796875 33.203125 25.25 31.453125 
Q 34.578125 28.953125 38.25 27.359375 
Q 41.9375 25.78125 44.03125 22.75 
Q 46.140625 19.734375 46.140625 15.234375 
Q 46.140625 10.84375 43.578125 6.953125 
Q 41.015625 3.078125 36.171875 0.953125 
Q 31.34375 -1.171875 25.25 -1.171875 
Q 15.140625 -1.171875 9.84375 3.03125 
Q 4.546875 7.234375 3.078125 15.484375 
z
" id="ArialMT-115"/>
      <path d="M 40.4375 19 
L 49.078125 17.875 
Q 47.65625 8.9375 41.8125 3.875 
Q 35.984375 -1.171875 27.484375 -1.171875 
Q 16.84375 -1.171875 10.375 5.78125 
Q 3.90625 12.75 3.90625 25.734375 
Q 3.90625 34.125 6.6875 40.421875 
Q 9.46875 46.734375 15.15625 49.875 
Q 20.84375 53.03125 27.546875 53.03125 
Q 35.984375 53.03125 41.359375 48.75 
Q 46.734375 44.484375 48.25 36.625 
L 39.703125 35.296875 
Q 38.484375 40.53125 35.375 43.15625 
Q 32.28125 45.796875 27.875 45.796875 
Q 21.234375 45.796875 17.078125 41.03125 
Q 12.9375 36.28125 12.9375 25.984375 
Q 12.9375 15.53125 16.9375 10.796875 
Q 20.953125 6.0625 27.390625 6.0625 
Q 32.5625 6.0625 36.03125 9.234375 
Q 39.5 12.40625 40.4375 19 
z
" id="ArialMT-99"/>
      <path d="M 3.328125 25.921875 
Q 3.328125 40.328125 11.328125 47.265625 
Q 18.015625 53.03125 27.640625 53.03125 
Q 38.328125 53.03125 45.109375 46.015625 
Q 51.90625 39.015625 51.90625 26.65625 
Q 51.90625 16.65625 48.90625 10.90625 
Q 45.90625 5.171875 40.15625 2 
Q 34.421875 -1.171875 27.640625 -1.171875 
Q 16.75 -1.171875 10.03125 5.8125 
Q 3.328125 12.796875 3.328125 25.921875 
z
M 12.359375 25.921875 
Q 12.359375 15.96875 16.703125 11.015625 
Q 21.046875 6.0625 27.640625 6.0625 
Q 34.1875 6.0625 38.53125 11.03125 
Q 42.875 16.015625 42.875 26.21875 
Q 42.875 35.84375 38.5 40.796875 
Q 34.125 45.75 27.640625 45.75 
Q 21.046875 45.75 16.703125 40.8125 
Q 12.359375 35.890625 12.359375 25.921875 
z
" id="ArialMT-111"/>
      <path d="M 6.5 0 
L 6.5 51.859375 
L 14.40625 51.859375 
L 14.40625 44 
Q 17.4375 49.515625 20 51.265625 
Q 22.5625 53.03125 25.640625 53.03125 
Q 30.078125 53.03125 34.671875 50.203125 
L 31.640625 42.046875 
Q 28.421875 43.953125 25.203125 43.953125 
Q 22.3125 43.953125 20.015625 42.21875 
Q 17.71875 40.484375 16.75 37.40625 
Q 15.28125 32.71875 15.28125 27.15625 
L 15.28125 0 
z
" id="ArialMT-114"/>
      <path id="ArialMT-32"/>
      <path d="M 7.71875 0 
L 7.71875 71.578125 
L 32.375 71.578125 
Q 40.71875 71.578125 45.125 70.5625 
Q 51.265625 69.140625 55.609375 65.4375 
Q 61.28125 60.640625 64.078125 53.1875 
Q 66.890625 45.75 66.890625 36.1875 
Q 66.890625 28.03125 64.984375 21.734375 
Q 63.09375 15.4375 60.109375 11.296875 
Q 57.125 7.171875 53.578125 4.796875 
Q 50.046875 2.4375 45.046875 1.21875 
Q 40.046875 0 33.546875 0 
z
M 17.1875 8.453125 
L 32.46875 8.453125 
Q 39.546875 8.453125 43.578125 9.765625 
Q 47.609375 11.078125 50 13.484375 
Q 53.375 16.84375 55.25 22.53125 
Q 57.125 28.21875 57.125 36.328125 
Q 57.125 47.5625 53.4375 53.59375 
Q 49.75 59.625 44.484375 61.671875 
Q 40.671875 63.140625 32.234375 63.140625 
L 17.1875 63.140625 
z
" id="ArialMT-68"/>
      <path d="M 25.78125 7.859375 
L 27.046875 0.09375 
Q 23.34375 -0.6875 20.40625 -0.6875 
Q 15.625 -0.6875 12.984375 0.828125 
Q 10.359375 2.34375 9.28125 4.8125 
Q 8.203125 7.28125 8.203125 15.1875 
L 8.203125 45.015625 
L 1.765625 45.015625 
L 1.765625 51.859375 
L 8.203125 51.859375 
L 8.203125 64.703125 
L 16.9375 69.96875 
L 16.9375 51.859375 
L 25.78125 51.859375 
L 25.78125 45.015625 
L 16.9375 45.015625 
L 16.9375 14.703125 
Q 16.9375 10.9375 17.40625 9.859375 
Q 17.875 8.796875 18.921875 8.15625 
Q 19.96875 7.515625 21.921875 7.515625 
Q 23.390625 7.515625 25.78125 7.859375 
z
" id="ArialMT-116"/>
      <path d="M 14.703125 0 
L 6.546875 0 
L 6.546875 71.578125 
L 15.328125 71.578125 
L 15.328125 46.046875 
Q 20.90625 53.03125 29.546875 53.03125 
Q 34.328125 53.03125 38.59375 51.09375 
Q 42.875 49.171875 45.625 45.671875 
Q 48.390625 42.1875 49.953125 37.25 
Q 51.515625 32.328125 51.515625 26.703125 
Q 51.515625 13.375 44.921875 6.09375 
Q 38.328125 -1.171875 29.109375 -1.171875 
Q 19.921875 -1.171875 14.703125 6.5 
z
M 14.59375 26.3125 
Q 14.59375 17 17.140625 12.84375 
Q 21.296875 6.0625 28.375 6.0625 
Q 34.125 6.0625 38.328125 11.0625 
Q 42.53125 16.0625 42.53125 25.984375 
Q 42.53125 36.140625 38.5 40.96875 
Q 34.46875 45.796875 28.765625 45.796875 
Q 23 45.796875 18.796875 40.796875 
Q 14.59375 35.796875 14.59375 26.3125 
z
" id="ArialMT-98"/>
      <path d="M 40.578125 0 
L 40.578125 7.625 
Q 34.515625 -1.171875 24.125 -1.171875 
Q 19.53125 -1.171875 15.546875 0.578125 
Q 11.578125 2.34375 9.640625 5 
Q 7.71875 7.671875 6.9375 11.53125 
Q 6.390625 14.109375 6.390625 19.734375 
L 6.390625 51.859375 
L 15.1875 51.859375 
L 15.1875 23.09375 
Q 15.1875 16.21875 15.71875 13.8125 
Q 16.546875 10.359375 19.234375 8.375 
Q 21.921875 6.390625 25.875 6.390625 
Q 29.828125 6.390625 33.296875 8.421875 
Q 36.765625 10.453125 38.203125 13.9375 
Q 39.65625 17.4375 39.65625 24.078125 
L 39.65625 51.859375 
L 48.4375 51.859375 
L 48.4375 0 
z
" id="ArialMT-117"/>
      <path d="M 6.59375 0 
L 6.59375 51.859375 
L 14.5 51.859375 
L 14.5 44.484375 
Q 20.21875 53.03125 31 53.03125 
Q 35.6875 53.03125 39.625 51.34375 
Q 43.5625 49.65625 45.515625 46.921875 
Q 47.46875 44.1875 48.25 40.4375 
Q 48.734375 37.984375 48.734375 31.890625 
L 48.734375 0 
L 39.9375 0 
L 39.9375 31.546875 
Q 39.9375 36.921875 38.90625 39.578125 
Q 37.890625 42.234375 35.28125 43.8125 
Q 32.671875 45.40625 29.15625 45.40625 
Q 23.53125 45.40625 19.453125 41.84375 
Q 15.375 38.28125 15.375 28.328125 
L 15.375 0 
z
" id="ArialMT-110"/>
     </defs>
     <use xlink:href="#ArialMT-101"/>
     <use x="55.615234" xlink:href="#ArialMT-108"/>
     <use x="77.832031" xlink:href="#ArialMT-105"/>
     <use x="100.048828" xlink:href="#ArialMT-120"/>
     <use x="150.048828" xlink:href="#ArialMT-95"/>
     <use x="205.664062" xlink:href="#ArialMT-115"/>
     <use x="255.664062" xlink:href="#ArialMT-99"/>
     <use x="305.664062" xlink:href="#ArialMT-111"/>
     <use x="361.279297" xlink:href="#ArialMT-114"/>
     <use x="394.580078" xlink:href="#ArialMT-101"/>
     <use x="450.195312" xlink:href="#ArialMT-32"/>
     <use x="477.978516" xlink:href="#ArialMT-68"/>
     <use x="550.195312" xlink:href="#ArialMT-105"/>
     <use x="572.412109" xlink:href="#ArialMT-115"/>
     <use x="622.412109" xlink:href="#ArialMT-116"/>
     <use x="650.195312" xlink:href="#ArialMT-114"/>
     <use x="683.496094" xlink:href="#ArialMT-105"/>
     <use x="705.712891" xlink:href="#ArialMT-98"/>
     <use x="761.328125" xlink:href="#ArialMT-117"/>
     <use x="816.943359" xlink:href="#ArialMT-116"/>
     <use x="844.726562" xlink:href="#ArialMT-105"/>
     <use x="866.943359" xlink:href="#ArialMT-111"/>
     <use x="922.558594" xlink:href="#ArialMT-110"/>
    </g>
   </g>
  </g>
 </g>
 <defs>
  <clipPath id="p1676bbd099">
   <rect height="326.16" width="334.8" x="54" y="51.84"/>
  </clipPath>
 </defs>
</svg>
